<svg xmlns="http://www.w3.org/2000/svg" xmlns:xlink="http://www.w3.org/1999/xlink" width="1024" zoomAndPan="magnify" viewBox="0 0 768 767.999994" height="1024" preserveAspectRatio="xMidYMid meet" version="1.0"><defs><g/></defs><g fill="#ffffff" fill-opacity="1"><g transform="translate(33.805665, 447.409599)"><g><path d="M 12.796875 0 L 12.796875 -207.34375 L 160.875 -207.34375 L 160.875 -161.140625 L 69.4375 -161.140625 L 69.4375 -116.609375 L 152.796875 -116.609375 L 152.796875 -71.8125 L 69.4375 -71.8125 L 69.4375 0 Z M 12.796875 0 "/></g></g><g transform="translate(201.628385, 447.409599)"><g><path d="M 12.796875 0 L 12.796875 -207.34375 L 69.4375 -207.34375 L 69.4375 -46.203125 L 154.46875 -46.203125 L 154.46875 0 Z M 12.796875 0 "/></g></g></g><g fill="#ffffff" fill-opacity="1"><g transform="translate(325.755969, 447.409599)"><g><path d="M 82.25 0 L 82.25 -71.8125 L 5.015625 -207.34375 L 71.109375 -207.34375 L 101.03125 -145.703125 C 103.625 -140.222656 106.007812 -134.628906 108.1875 -128.921875 C 110.375 -123.222656 112.582031 -116.847656 114.8125 -109.796875 L 106.59375 -109.796875 C 108.632812 -116.847656 110.628906 -123.222656 112.578125 -128.921875 C 114.523438 -134.628906 116.800781 -140.222656 119.40625 -145.703125 L 147.375 -207.34375 L 213.1875 -207.34375 L 138.1875 -71.8125 L 138.1875 0 Z M 82.25 0 "/></g></g></g><g fill="#ffffff" fill-opacity="1"><g transform="translate(543.953315, 447.409599)"><g><path d="M 12.796875 0 L 12.796875 -207.34375 L 101.859375 -207.34375 C 117.546875 -207.34375 131.234375 -204.515625 142.921875 -198.859375 C 154.609375 -193.203125 163.675781 -185.0625 170.125 -174.4375 C 176.570312 -163.8125 179.796875 -151.171875 179.796875 -136.515625 C 179.796875 -121.765625 176.476562 -109.265625 169.84375 -99.015625 C 163.207031 -88.765625 153.882812 -80.96875 141.875 -75.625 C 129.863281 -70.289062 115.832031 -67.625 99.78125 -67.625 L 47.171875 -67.625 L 47.171875 -111.609375 L 90.59375 -111.609375 C 97.082031 -111.609375 102.625 -112.488281 107.21875 -114.25 C 111.8125 -116.007812 115.359375 -118.722656 117.859375 -122.390625 C 120.367188 -126.054688 121.625 -130.765625 121.625 -136.515625 C 121.625 -142.265625 120.367188 -146.992188 117.859375 -150.703125 C 115.359375 -154.421875 111.8125 -157.207031 107.21875 -159.0625 C 102.625 -160.914062 97.082031 -161.84375 90.59375 -161.84375 L 69.4375 -161.84375 L 69.4375 0 Z M 125.65625 0 L 76.265625 -94.90625 L 135.828125 -94.90625 L 186.609375 0 Z M 125.65625 0 "/></g></g></g></svg>