<svg xmlns="http://www.w3.org/2000/svg" xmlns:xlink="http://www.w3.org/1999/xlink" width="1024" zoomAndPan="magnify" viewBox="0 0 768 767.999994" height="1024" preserveAspectRatio="xMidYMid meet" version="1.0"><defs><g/><clipPath id="37c8a52f62"><path d="M 17.75 236.851562 L 51.273438 236.851562 L 51.273438 270.375 L 17.75 270.375 Z M 17.75 236.851562 " clip-rule="nonzero"/></clipPath><clipPath id="cd5fe0d8c4"><path d="M 34.511719 236.851562 C 25.253906 236.851562 17.75 244.355469 17.75 253.613281 C 17.75 262.871094 25.253906 270.375 34.511719 270.375 C 43.769531 270.375 51.273438 262.871094 51.273438 253.613281 C 51.273438 244.355469 43.769531 236.851562 34.511719 236.851562 Z M 34.511719 236.851562 " clip-rule="nonzero"/></clipPath><clipPath id="551a6ca2ef"><path d="M 0.75 0.851562 L 34.273438 0.851562 L 34.273438 34.375 L 0.75 34.375 Z M 0.75 0.851562 " clip-rule="nonzero"/></clipPath><clipPath id="6d171322c4"><path d="M 17.511719 0.851562 C 8.253906 0.851562 0.75 8.355469 0.75 17.613281 C 0.75 26.871094 8.253906 34.375 17.511719 34.375 C 26.769531 34.375 34.273438 26.871094 34.273438 17.613281 C 34.273438 8.355469 26.769531 0.851562 17.511719 0.851562 Z M 17.511719 0.851562 " clip-rule="nonzero"/></clipPath><clipPath id="f9c96c1d57"><rect x="0" width="35" y="0" height="35"/></clipPath><clipPath id="185bd6184f"><path d="M 286.707031 232.859375 L 313.777344 232.859375 L 313.777344 272.835938 L 286.707031 272.835938 Z M 286.707031 232.859375 " clip-rule="nonzero"/></clipPath><clipPath id="3759cc2e47"><path d="M 304.628906 245.320312 L 313.777344 245.320312 L 313.777344 260.335938 L 304.628906 260.335938 L 309.335938 272.800781 L 286.707031 252.832031 L 309.335938 232.859375 Z M 304.628906 245.320312 " clip-rule="nonzero"/></clipPath><clipPath id="261eef4b8c"><path d="M 0.707031 0.859375 L 27.777344 0.859375 L 27.777344 40.835938 L 0.707031 40.835938 Z M 0.707031 0.859375 " clip-rule="nonzero"/></clipPath><clipPath id="5050e7ab0c"><path d="M 18.628906 13.320312 L 27.777344 13.320312 L 27.777344 28.335938 L 18.628906 28.335938 L 23.335938 40.800781 L 0.707031 20.832031 L 23.335938 0.859375 Z M 18.628906 13.320312 " clip-rule="nonzero"/></clipPath><clipPath id="043d45dbc6"><rect x="0" width="28" y="0" height="41"/></clipPath><clipPath id="4fa400883c"><path d="M 25.082031 244.183594 L 43.941406 244.183594 L 43.941406 263.042969 L 25.082031 263.042969 Z M 25.082031 244.183594 " clip-rule="nonzero"/></clipPath><clipPath id="8b58253bb6"><path d="M 34.511719 244.183594 C 29.304688 244.183594 25.082031 248.40625 25.082031 253.613281 C 25.082031 258.820312 29.304688 263.042969 34.511719 263.042969 C 39.722656 263.042969 43.941406 258.820312 43.941406 253.613281 C 43.941406 248.40625 39.722656 244.183594 34.511719 244.183594 Z M 34.511719 244.183594 " clip-rule="nonzero"/></clipPath><clipPath id="5acb015af9"><path d="M 0.0820312 0.183594 L 18.941406 0.183594 L 18.941406 19.042969 L 0.0820312 19.042969 Z M 0.0820312 0.183594 " clip-rule="nonzero"/></clipPath><clipPath id="a1daeeacb3"><path d="M 9.511719 0.183594 C 4.304688 0.183594 0.0820312 4.40625 0.0820312 9.613281 C 0.0820312 14.820312 4.304688 19.042969 9.511719 19.042969 C 14.722656 19.042969 18.941406 14.820312 18.941406 9.613281 C 18.941406 4.40625 14.722656 0.183594 9.511719 0.183594 Z M 9.511719 0.183594 " clip-rule="nonzero"/></clipPath><clipPath id="b937874d5b"><rect x="0" width="19" y="0" height="20"/></clipPath></defs><g fill="#ffffff" fill-opacity="1"><g transform="translate(46.089846, 474.119118)"><g><path d="M 12.359375 0 L 12.359375 -200.078125 L 155.21875 -200.078125 L 155.21875 -155.5 L 67 -155.5 L 67 -112.53125 L 147.4375 -112.53125 L 147.4375 -69.28125 L 67 -69.28125 L 67 0 Z M 12.359375 0 "/></g></g><g transform="translate(208.02537, 474.119118)"><g><path d="M 12.359375 0 L 12.359375 -200.078125 L 67 -200.078125 L 67 -44.578125 L 149.046875 -44.578125 L 149.046875 0 Z M 12.359375 0 "/></g></g></g><g fill="#ffffff" fill-opacity="1"><g transform="translate(327.798599, 474.119118)"><g><path d="M 79.359375 0 L 79.359375 -69.28125 L 4.828125 -200.078125 L 68.609375 -200.078125 L 97.484375 -140.59375 C 99.992188 -135.3125 102.300781 -129.914062 104.40625 -124.40625 C 106.507812 -118.90625 108.632812 -112.75 110.78125 -105.9375 L 102.859375 -105.9375 C 104.828125 -112.75 106.75 -118.90625 108.625 -124.40625 C 110.507812 -129.914062 112.703125 -135.3125 115.203125 -140.59375 L 142.203125 -200.078125 L 205.71875 -200.078125 L 133.34375 -69.28125 L 133.34375 0 Z M 79.359375 0 "/></g></g><g transform="translate(538.341636, 474.119118)"><g><path d="M 12.359375 0 L 12.359375 -200.078125 L 98.296875 -200.078125 C 113.421875 -200.078125 126.625 -197.34375 137.90625 -191.875 C 149.1875 -186.414062 157.9375 -178.5625 164.15625 -168.3125 C 170.375 -158.0625 173.484375 -145.863281 173.484375 -131.71875 C 173.484375 -117.488281 170.28125 -105.425781 163.875 -95.53125 C 157.476562 -85.644531 148.484375 -78.128906 136.890625 -72.984375 C 125.296875 -67.835938 111.757812 -65.265625 96.28125 -65.265625 L 45.515625 -65.265625 L 45.515625 -107.6875 L 87.421875 -107.6875 C 93.679688 -107.6875 99.023438 -108.535156 103.453125 -110.234375 C 107.890625 -111.941406 111.316406 -114.5625 113.734375 -118.09375 C 116.148438 -121.632812 117.359375 -126.175781 117.359375 -131.71875 C 117.359375 -137.269531 116.148438 -141.835938 113.734375 -145.421875 C 111.316406 -149.003906 107.890625 -151.691406 103.453125 -153.484375 C 99.023438 -155.273438 93.679688 -156.171875 87.421875 -156.171875 L 67 -156.171875 L 67 0 Z M 121.25 0 L 73.578125 -91.578125 L 131.0625 -91.578125 L 180.0625 0 Z M 121.25 0 "/></g></g></g><path stroke-linecap="butt" transform="matrix(0.75, 0, 0, 0.75, 26.993161, 245.330163)" fill="none" stroke-linejoin="miter" d="M 10.024744 22.950409 L 10.014328 22.950409 C 10.009119 22.950409 10.003911 22.950409 10.003911 22.955617 C 10.003911 22.955617 9.998703 22.960825 9.998703 22.960825 L 9.998703 311.101465 C 9.998703 324.356674 20.743495 335.101466 33.998704 335.101466 L 918.019581 335.101466 C 931.27479 335.101466 942.019582 324.356674 942.019582 311.101465 L 942.019582 34.002493 C 942.019582 20.747284 931.27479 10.002491 918.019581 10.002491 L 380.733096 10.002491 " stroke="#ff3131" stroke-width="20" stroke-opacity="1" stroke-miterlimit="4"/><g clip-path="url(#37c8a52f62)"><g clip-path="url(#cd5fe0d8c4)"><g transform="matrix(1, 0, 0, 1, 17, 236)"><g clip-path="url(#f9c96c1d57)"><g clip-path="url(#551a6ca2ef)"><g clip-path="url(#6d171322c4)"><path fill="#ff3131" d="M 0.75 0.851562 L 34.273438 0.851562 L 34.273438 34.375 L 0.75 34.375 Z M 0.75 0.851562 " fill-opacity="1" fill-rule="nonzero"/></g></g></g></g></g></g><g clip-path="url(#185bd6184f)"><g clip-path="url(#3759cc2e47)"><g transform="matrix(1, 0, 0, 1, 286, 232)"><g clip-path="url(#043d45dbc6)"><g clip-path="url(#261eef4b8c)"><g clip-path="url(#5050e7ab0c)"><path fill="#ff3131" d="M 0.707031 0.859375 L 27.777344 0.859375 L 27.777344 40.835938 L 0.707031 40.835938 Z M 0.707031 0.859375 " fill-opacity="1" fill-rule="nonzero"/></g></g></g></g></g></g><g clip-path="url(#4fa400883c)"><g clip-path="url(#8b58253bb6)"><g transform="matrix(1, 0, 0, 1, 25, 244)"><g clip-path="url(#b937874d5b)"><g clip-path="url(#5acb015af9)"><g clip-path="url(#a1daeeacb3)"><path fill="#000000" d="M 0.0820312 0.183594 L 18.941406 0.183594 L 18.941406 19.042969 L 0.0820312 19.042969 Z M 0.0820312 0.183594 " fill-opacity="1" fill-rule="nonzero"/></g></g></g></g></g></g></svg>